# xmcd
#
# Track frame offsets:
#	150
#	40877
#	49265
#	77170
#	85627
#	113657
#	124297
#	157947
#	171535
#	223235
#	229455
#	269072
#	295322
#	301900
#	317112
#
# Disc length: 4474 seconds
#
# Revision: 6
# Processed by: cddbd v1.5.2PL0 Copyright (c) Steve Scherf et al.
# Submitted via: audiograbber 1.83.01
#
DISCID=de11780f
DTITLE=Adiemus (Karl Jenkins) - Adiemus 2 - Cantata Mundi
DYEAR=1997
DGENRE=New Age
TTITLE0=Cantus - 'Song Of Tears'
TTITLE1=Chorale I (Za Ma Ba)
TTITLE2=Cantus - 'Song Of The Spirit'
TTITLE3=Chorale II (Roosh Ka Ma)
TTITLE4=Cantus - 'Song Of The Trinity'
TTITLE5=Chorale III (Vocalise)
TTITLE6=Cantus - 'Song Of The Odyssey'
TTITLE7=Chorale IV (Alame Oo Ya)
TTITLE8=Cantus - 'Song Of The Plains'
TTITLE9=Chorale V (Arama Ivi)
TTITLE10=Cantus - 'Song Of Invocation'
TTITLE11=Chorale VI (Sol-Fa) - Cantus - 'Song Of Aeolus'
TTITLE12=Chorale VII (A Ma Ka Ma)
TTITLE13=Cantilena
TTITLE14=Elegia
EXTD=YEAR: 1997
EXTT0=
EXTT1=
EXTT2=
EXTT3=
EXTT4=
EXTT5=
EXTT6=
EXTT7=
EXTT8=
EXTT9=
EXTT10=
EXTT11=
EXTT12=
EXTT13=
EXTT14=
PLAYORDER=
